<svg xmlns="http://www.w3.org/2000/svg" version="1.1" xmlns:xlink="http://www.w3.org/1999/xlink" viewBox="0 0 200 200" width="200" height="200"><metadata><rdf:RDF xmlns:rdf="http://www.w3.org/1999/02/22-rdf-syntax-ns#" xmlns:dc="http://purl.org/dc/elements/1.1/"><rdf:Description><dc:creator>RealFaviconGenerator</dc:creator><dc:source>https://realfavicongenerator.net</dc:source></rdf:Description></rdf:RDF></metadata><rect width="200" height="200" fill="url('#gradient')"></rect><defs><linearGradient id="gradient" gradientTransform="rotate(0 0.5 0.5)"><stop offset="0%" stop-color="#1d1f1d"></stop><stop offset="100%" stop-color="#000000"></stop></linearGradient></defs><g><g fill="#00c1b5" transform="matrix(7.7928538283062645,0,0,7.7928538283062645,10.616243071567155,126.10566905200896)" stroke="#000000" stroke-width="0.2"><path d="M10.73-5.36L10.73-5.21Q10.73-2.74 9.62-1.27Q8.52 0.20 6.63 0.20L6.63 0.20Q5.18 0.20 4.24-0.87L4.24-0.87L4.24 4.06L0.95 4.06L0.95-10.57L4.02-10.57L4.12-9.59Q5.07-10.76 6.61-10.76L6.61-10.76Q8.56-10.76 9.65-9.32Q10.73-7.88 10.73-5.36L10.73-5.36ZM7.44-5.06L7.44-5.41Q7.44-8.22 5.80-8.22L5.80-8.22Q4.63-8.22 4.24-7.38L4.24-7.38L4.24-3.22Q4.67-2.34 5.82-2.34L5.82-2.34Q7.39-2.34 7.44-5.06L7.44-5.06ZM21.99-5.36L21.99-5.21Q21.99-2.74 20.88-1.27Q19.78 0.20 17.89 0.20L17.89 0.20Q16.44 0.20 15.50-0.87L15.50-0.87L15.50 4.06L12.21 4.06L12.21-10.57L15.28-10.57L15.38-9.59Q16.33-10.76 17.87-10.76L17.87-10.76Q19.82-10.76 20.91-9.32Q21.99-7.88 21.99-5.36L21.99-5.36ZM18.70-5.06L18.70-5.41Q18.70-8.22 17.06-8.22L17.06-8.22Q15.89-8.22 15.50-7.38L15.50-7.38L15.50-3.22Q15.93-2.34 17.08-2.34L17.08-2.34Q18.65-2.34 18.70-5.06L18.70-5.06Z"></path></g></g><style>@media (prefers-color-scheme: light) { :root { filter: contrast(1) brightness(1); } }
</style></svg>